<svg width="25" height="25" viewBox="0 0 25 25" fill="none" xmlns="http://www.w3.org/2000/svg">
<path d="M20.8333 2.08325H10.4166C9.26763 2.08325 8.33325 3.01763 8.33325 4.16659V8.33325H4.16659C3.01763 8.33325 2.08325 9.26763 2.08325 10.4166V20.8333C2.08325 21.9822 3.01763 22.9166 4.16659 22.9166H14.5833C15.7322 22.9166 16.6666 21.9822 16.6666 20.8333V16.6666H20.8333C21.9822 16.6666 22.9166 15.7322 22.9166 14.5833V4.16659C22.9166 3.01763 21.9822 2.08325 20.8333 2.08325ZM4.16659 20.8333V10.4166H14.5833L14.5853 20.8333H4.16659ZM20.8333 14.5833H16.6666V10.4166C16.6666 9.26763 15.7322 8.33325 14.5833 8.33325H10.4166V4.16659H20.8333V14.5833Z" fill="#121212"/>
</svg>
