<svg width="34" height="35" viewBox="0 0 34 35" fill="none" xmlns="http://www.w3.org/2000/svg">
<path d="M29.3064 28.4375V10.9375H11.8064V9.84375C11.8064 8.03425 13.2781 6.5625 15.0876 6.5625H18.3689V0H15.0876C12.4779 0.00324162 9.976 1.04139 8.13064 2.88675C6.28529 4.73211 5.24714 7.23402 5.2439 9.84375V10.9375H0.868896V17.5H5.2439V28.4375H0.868896V35H16.1814V28.4375H11.8064V17.5H22.8051V28.4375H18.3689V35H33.6814V28.4375H29.3064Z" fill="#464646"/>
<path d="M26.0251 6.5625C27.8373 6.5625 29.3064 5.09343 29.3064 3.28125C29.3064 1.46907 27.8373 0 26.0251 0C24.213 0 22.7439 1.46907 22.7439 3.28125C22.7439 5.09343 24.213 6.5625 26.0251 6.5625Z" fill="#464646"/>
</svg>
