<svg width="36" height="35" viewBox="0 0 36 35" fill="none" xmlns="http://www.w3.org/2000/svg">
<path d="M17.9345 0C15.5793 0 13.2472 0.463889 11.0712 1.36518C8.89534 2.26647 6.91826 3.58752 5.25289 5.25288C1.88952 8.61625 0 13.178 0 17.9345C0 25.8615 5.14719 32.5869 12.2672 34.9722C13.1639 35.1157 13.4509 34.5597 13.4509 34.0755C13.4509 33.663 13.4509 32.5331 13.4509 31.0446C8.48301 32.1206 7.42487 28.6413 7.42487 28.6413C6.59989 26.561 5.43415 26.005 5.43415 26.005C3.80211 24.893 5.55969 24.9289 5.55969 24.9289C7.35313 25.0545 8.30366 26.7762 8.30366 26.7762C9.86396 29.5022 12.5003 28.6952 13.5226 28.2647C13.684 27.099 14.1503 26.3099 14.6525 25.8615C10.671 25.4131 6.49228 23.8708 6.49228 17.0377C6.49228 15.047 7.17379 13.4509 8.33953 12.1775C8.16018 11.7291 7.53248 9.86396 8.51887 7.44281C8.51887 7.44281 10.0254 6.95858 13.4509 9.27212C14.8677 8.87756 16.41 8.68028 17.9345 8.68028C19.4589 8.68028 21.0013 8.87756 22.4181 9.27212C25.8436 6.95858 27.3501 7.44281 27.3501 7.44281C28.3365 9.86396 27.7088 11.7291 27.5294 12.1775C28.6952 13.4509 29.3767 15.047 29.3767 17.0377C29.3767 23.8887 25.18 25.3952 21.1806 25.8436C21.8263 26.3995 22.4181 27.4935 22.4181 29.1615C22.4181 31.5647 22.4181 33.5016 22.4181 34.0755C22.4181 34.5597 22.705 35.1336 23.6197 34.9722C30.7397 32.569 35.8689 25.8615 35.8689 17.9345C35.8689 15.5793 35.4051 13.2472 34.5038 11.0712C33.6025 8.89534 32.2814 6.91825 30.6161 5.25288C28.9507 3.58752 26.9736 2.26647 24.7977 1.36518C22.6218 0.463889 20.2897 0 17.9345 0Z" fill="#464646"/>
</svg>
