<svg width="35" height="35" viewBox="0 0 35 35" fill="none" xmlns="http://www.w3.org/2000/svg">
<path d="M31.1111 0C32.1425 0 33.1317 0.409721 33.861 1.13903C34.5903 1.86834 35 2.85749 35 3.88889V31.1111C35 32.1425 34.5903 33.1317 33.861 33.861C33.1317 34.5903 32.1425 35 31.1111 35H3.88889C2.85749 35 1.86834 34.5903 1.13903 33.861C0.409721 33.1317 0 32.1425 0 31.1111V3.88889C0 2.85749 0.409721 1.86834 1.13903 1.13903C1.86834 0.409721 2.85749 0 3.88889 0H31.1111ZM30.1389 30.1389V19.8333C30.1389 18.1522 29.471 16.5398 28.2823 15.3511C27.0935 14.1623 25.4812 13.4944 23.8 13.4944C22.1472 13.4944 20.2222 14.5056 19.2889 16.0222V13.8639H13.8639V30.1389H19.2889V20.5528C19.2889 19.0556 20.4944 17.8306 21.9917 17.8306C22.7136 17.8306 23.4061 18.1174 23.9166 18.6279C24.4271 19.1384 24.7139 19.8308 24.7139 20.5528V30.1389H30.1389ZM7.54444 10.8111C8.41082 10.8111 9.24171 10.4669 9.85433 9.85433C10.4669 9.24171 10.8111 8.41082 10.8111 7.54444C10.8111 5.73611 9.35278 4.25833 7.54444 4.25833C6.67291 4.25833 5.83708 4.60455 5.22081 5.22081C4.60455 5.83708 4.25833 6.67291 4.25833 7.54444C4.25833 9.35278 5.73611 10.8111 7.54444 10.8111ZM10.2472 30.1389V13.8639H4.86111V30.1389H10.2472Z" fill="#464646"/>
</svg>
